<?xml version="1.0" encoding="iso-8859-1"?>
<!-- Generator: Adobe Illustrator 19.0.0, SVG Export Plug-In . SVG Version: 6.00 Build 0)  -->
<svg version="1.1" id="Layer_1" xmlns="http://www.w3.org/2000/svg" xmlns:xlink="http://www.w3.org/1999/xlink" x="0px" y="0px"
	 viewBox="0 0 512 512" style="enable-background:new 0 0 512 512;" xml:space="preserve">
<rect x="219.381" y="389.727" style="fill:#FFD3AE;" width="86.881" height="82.408"/>
<rect x="219.381" y="382.169" style="fill:#D8A580;" width="86.881" height="15.893"/>
<g>
	<path style="fill:#FFE8B0;" d="M120.643,357.241v114.888H33.762V336.203h0.883c0,8.665,4.25-2.178,10.795,2.519
		c4.25,3.061,9.465,4.862,15.104,4.862s10.854-1.801,15.104-4.862L120.643,357.241z"/>
	<path style="fill:#FFE8B0;" d="M168.228,201.549l-9.807,45.042c-2.225,12.714-8.123,24.028-16.505,32.904
		c-9.512,10.066-16.152,22.391-19.248,35.659l-47.031,34.305c-4.25-3.049-9.465-4.85-15.092-4.85s-10.831,1.789-15.081,4.85
		c-6.557,4.697-10.819-21.932-10.819-13.256h-0.883v-21.191c0-12.408-3.956-24.416-10.972-34.635
		c-9.618-13.998-15.092-28.466-15.763-47.172l-0.848-15.881L0.01,174.99v-0.012c-0.33-9.606,7.181-17.659,16.788-18.012
		c2.154-0.071,4.215,0.235,6.145,0.883c4.215,1.413,7.735,4.391,9.818,8.288c0.247,0.459,0.471,0.942,0.683,1.424h0.012
		l-1.872-11.255l-0.812-4.85c-0.341-9.618,7.169-17.694,16.776-18.036c0.212-0.012,0.424-0.012,0.636-0.012
		c2.484,0,4.862,0.53,7.016,1.483c5.415,2.39,9.406,7.452,10.23,13.574l0.224-0.024l-8.994-74.92
		c-1.165-9.512,5.58-18.177,15.092-19.389c0.742-0.094,1.483-0.141,2.213-0.141c8.653,0,16.152,6.428,17.259,15.234l12.491,104.599
		c0.341,2.743,4.297,2.79,4.709,0.059l14.504-96.829c1.424-9.512,10.301-16.069,19.813-14.645
		c8.641,1.295,14.845,8.735,14.845,17.211c0,0.859-0.071,1.731-0.2,2.602l-3.555,23.71v0.024l-10.595,70.718l7.476,0.753
		c0.012,0,0.012,0,0.024,0C162.589,178.628,170.759,189.894,168.228,201.549z"/>
</g>
<g>
	<path style="fill:#4D4D4D;" d="M75.637,315.154h47.031c-1.33,5.663-2.025,11.49-2.025,17.4v24.687H75.649
		c-15.104-5.067-31.075-12.373-31.075-21.037C44.574,327.539,53.135,322.056,75.637,315.154z"/>
	<path style="fill:#4D4D4D;" d="M52.033,315.154c-1.33,5.663-2.025,11.49-2.025,17.4v24.687H33.762v-42.087H52.033z"/>
</g>
<path style="fill:#F95428;" d="M75.637,315.154c6.546,4.709,10.807,12.385,10.807,21.049c0,8.665-4.25,16.34-10.795,21.037
	c-4.25,3.061-9.465,4.862-15.104,4.862c-14.304,0-25.9-11.596-25.9-25.9s11.596-25.9,25.9-25.9
	C66.172,310.303,71.387,312.105,75.637,315.154z"/>
<path style="fill:#2BA5F7;" d="M69.851,323.224c4.037,2.904,6.664,7.637,6.664,12.98c0,5.344-2.621,10.076-6.657,12.972
	c-2.621,1.887-5.837,2.998-9.313,2.998c-8.82,0-15.971-7.151-15.971-15.971s7.151-15.971,15.971-15.971
	C64.014,320.232,67.23,321.344,69.851,323.224z"/>
<path style="fill:#B27214;" d="M408.741,134.34l0.224-0.024l-8.982-74.838c-1.213-9.548,5.545-18.259,15.092-19.472
	c0.742-0.094,1.483-0.141,2.213-0.141c8.641,0,16.14,6.428,17.247,15.234l12.491,104.599c0.353,2.743,4.309,2.79,4.709,0.059
	l14.504-96.829c1.436-9.512,10.301-16.069,19.813-14.645c8.641,1.295,14.845,8.735,14.845,17.211c0,0.859-0.071,1.731-0.2,2.602
	l-14.151,94.451l7.476,0.753c11.878,1.189,20.049,12.455,17.518,24.122l-9.806,45.042c-2.496,14.28-9.618,26.782-19.695,36.059
	c-11.455,10.536-18.071,25.323-18.071,40.898v162.708h-86.893V299.367c0-11.419-3.52-22.556-10.101-31.868
	c-10.16-14.398-15.94-29.161-16.635-48.42l-0.848-15.881l-6.169-42.334v-0.012c-0.33-9.606,7.181-17.659,16.788-18.012
	c7.417-0.259,13.915,4.144,16.646,10.595h0.012l-2.684-16.105c-0.341-9.618,7.169-17.694,16.788-18.036
	c0.212-0.012,0.424-0.012,0.624-0.012C400.241,119.283,407.587,125.781,408.741,134.34z"/>
<path style="fill:#995C0D;" d="M384.642,267.499c6.581,9.312,10.101,20.449,10.101,31.868v172.762h-17.671V299.367
	c0-11.419-3.52-22.556-10.101-31.868c-10.16-14.398-15.94-29.161-16.635-48.42l-0.848-15.881l-6.169-42.334v-0.012
	c-0.33-9.606,7.181-17.659,16.788-18.012c3.449-0.118,6.687,0.765,9.453,2.402c-5.321,3.132-8.794,9.006-8.57,15.61v0.012
	l6.169,42.334l0.848,15.881C368.702,238.338,374.483,253.101,384.642,267.499z"/>
<path style="fill:#FFD3AE;" d="M306.59,212.074c2.731-6.44,9.23-10.842,16.635-10.584c9.606,0.353,17.117,8.406,16.788,18.012v0.012
	l-6.169,42.334l-0.848,15.881c-0.683,19.26-6.475,34.023-16.623,48.42c-4.509,6.369-7.582,13.597-9.065,21.191l-41.101,27.485
	l-50.889-27.485c-3.084-7.593-7.852-14.492-14.021-20.166c-10.066-9.277-17.2-21.779-19.695-36.059l-9.807-45.042
	c-2.531-11.667,5.651-22.933,17.518-24.122l7.476-0.753h0.012l-14.151-94.451c-0.13-0.871-0.2-1.742-0.2-2.602
	c0-8.476,6.204-15.916,14.845-17.211c9.512-1.424,18.377,5.133,19.801,14.645l14.504,96.829c0.412,2.731,4.368,2.684,4.721-0.059
	l12.479-104.599c1.118-8.806,8.606-15.234,17.259-15.234c0.73,0,1.472,0.047,2.213,0.141c9.548,1.213,16.305,9.924,15.092,19.472
	l-8.982,74.838l0.212,0.024c1.165-8.559,8.5-15.057,17.247-15.057c0.212,0,0.424,0,0.636,0.012
	c9.618,0.341,17.129,8.417,16.788,18.036L306.59,212.074z"/>
<path style="fill:#F95428;" d="M315.82,352.296v32.469c0,2.737-2.219,4.956-4.956,4.956h-4.603H219.38h-4.062
	c-2.737,0-4.956-2.219-4.956-4.956v-32.469c0-2.737,2.219-4.956,4.956-4.956l0,0h91.99h3.555
	C313.601,347.34,315.82,349.559,315.82,352.296z"/>
<path style="fill:#E54728;" d="M231.552,384.765v-32.469c0-2.737,2.219-4.956,4.956-4.956h-21.191c-2.737,0-4.956,2.219-4.956,4.956
	v32.469c0,2.737,2.219,4.956,4.956,4.956h4.062h17.129C233.772,389.721,231.552,387.502,231.552,384.765z"/>
<g>
	<path style="fill:#E2C88F;" d="M150.734,177.427l-5.79,33.817c-0.28,1.636-1.699,2.831-3.358,2.831l0,0
		c-2.083,0-3.678-1.852-3.369-3.912l5.017-33.489l7.476,0.753C150.722,177.427,150.722,177.427,150.734,177.427z"/>
	<path style="fill:#E2C88F;" d="M65.301,186.704c-1.107,0-2.131-0.412-2.908-1.107s-1.307-1.66-1.436-2.755L55.2,134.893
		c5.415,2.39,9.406,7.452,10.23,13.574l0.224-0.024l4.003,33.352C69.975,184.408,67.938,186.704,65.301,186.704z"/>
	<path style="fill:#E2C88F;" d="M32.091,201.184c-1.107,0-2.131-0.412-2.908-1.107c-0.777-0.695-1.307-1.66-1.436-2.755
		l-4.803-39.473c4.215,1.413,7.735,4.391,9.818,8.288l3.685,30.138C36.764,198.888,34.728,201.184,32.091,201.184z"/>
</g>
<g>
	<path style="fill:#995C0D;" d="M494.044,163.3l-5.79,33.817c-0.28,1.636-1.699,2.831-3.358,2.831l0,0
		c-2.083,0-3.678-1.852-3.369-3.912l5.017-33.489l7.476,0.753C494.033,163.3,494.033,163.3,494.044,163.3z"/>
	<path style="fill:#995C0D;" d="M408.611,172.577c-1.107,0-2.131-0.412-2.908-1.107c-0.777-0.695-1.307-1.66-1.436-2.755
		l-5.757-47.949c5.415,2.39,9.406,7.452,10.23,13.574l0.224-0.024l4.003,33.352C413.285,170.281,411.248,172.577,408.611,172.577z"
		/>
	<path style="fill:#995C0D;" d="M375.401,187.057c-1.107,0-2.131-0.412-2.908-1.107c-0.777-0.695-1.307-1.66-1.436-2.755
		l-4.803-39.473c4.215,1.413,7.735,4.391,9.818,8.288l3.685,30.138C380.075,184.761,378.038,187.057,375.401,187.057z"/>
</g>
<g>
	<path style="fill:#D8A580;" d="M189.289,222.033l5.79,33.817c0.28,1.636,1.699,2.831,3.358,2.831l0,0
		c2.083,0,3.678-1.852,3.369-3.912l-5.017-33.489l-7.476,0.753C189.301,222.033,189.301,222.033,189.289,222.033z"/>
	<path style="fill:#D8A580;" d="M274.722,231.31c1.107,0,2.131-0.412,2.908-1.107c0.777-0.695,1.307-1.66,1.436-2.755l5.757-47.949
		c-5.415,2.39-9.406,7.452-10.23,13.574l-0.224-0.024l-4.003,33.352C270.049,229.014,272.085,231.31,274.722,231.31z"/>
	<path style="fill:#D8A580;" d="M307.933,245.79c1.107,0,2.131-0.412,2.908-1.107c0.777-0.695,1.307-1.66,1.436-2.755l4.803-39.473
		c-4.215,1.413-7.735,4.391-9.818,8.288l-3.685,30.138C303.259,243.494,305.296,245.79,307.933,245.79z"/>
</g>
<polygon style="fill:#E2C88F;" points="31.584,156.307 30.772,151.457 30.996,151.433 "/>
<g>
</g>
<g>
</g>
<g>
</g>
<g>
</g>
<g>
</g>
<g>
</g>
<g>
</g>
<g>
</g>
<g>
</g>
<g>
</g>
<g>
</g>
<g>
</g>
<g>
</g>
<g>
</g>
<g>
</g>
</svg>
